<?xml version="1.0" encoding="UTF-8" standalone="no"?>
<!DOCTYPE svg PUBLIC "-//W3C//DTD SVG 1.1//EN" "http://www.w3.org/Graphics/SVG/1.1/DTD/svg11.dtd">
<svg width="100%" height="100%" viewBox="0 0 205 119" version="1.1" xmlns="http://www.w3.org/2000/svg" xmlns:xlink="http://www.w3.org/1999/xlink" xml:space="preserve" xmlns:serif="http://www.serif.com/" style="fill-rule:evenodd;clip-rule:evenodd;stroke-linejoin:round;stroke-miterlimit:2;">
    <g transform="matrix(1,0,0,1,-693.338,-1368.19)">
        <g transform="matrix(2,0,0,2,0,0)">
            <path d="M446.833,710.56L412.048,710.56L411.984,710.559C411.712,710.551 405.266,710.322 400.289,706.757C397.221,704.559 395.271,701.125 394.939,697.333C394.609,693.554 395.927,689.846 398.556,687.161C400.519,685.155 403,684.095 405.731,684.095C411.631,684.095 414.604,687.397 416.06,690.167C417.529,692.964 417.705,695.676 417.72,695.976C417.781,697.178 416.856,698.202 415.655,698.263C414.456,698.323 413.429,697.399 413.368,696.197C413.367,696.186 413.231,694.086 412.143,692.084C410.816,689.641 408.719,688.453 405.731,688.453C404.155,688.453 402.827,689.027 401.669,690.209C399.932,691.985 399.061,694.443 399.281,696.954C399.501,699.476 400.794,701.758 402.826,703.214C406.6,705.917 411.691,706.185 412.087,706.202L446.833,706.202C448.037,706.202 449.012,707.177 449.012,708.381C449.012,709.584 448.037,710.56 446.833,710.56Z" style="fill:url(#_Radial1);"/>
        </g>
        <g transform="matrix(2,0,0,2,0,0)">
            <path d="M391.774,710.56L363.828,710.56L363.764,710.559C363.492,710.551 357.047,710.322 352.069,706.757C349.001,704.559 347.051,701.125 346.719,697.333C346.389,693.554 347.707,689.846 350.336,687.161C352.3,685.155 354.781,684.095 357.511,684.095C363.411,684.095 366.385,687.397 367.84,690.167C369.309,692.964 369.485,695.676 369.5,695.976C369.561,697.178 368.637,698.202 367.435,698.263C366.233,698.323 365.209,697.399 365.148,696.197C365.147,696.186 365.011,694.086 363.924,692.084C362.596,689.641 360.499,688.453 357.511,688.453C355.936,688.453 354.607,689.027 353.45,690.209C351.712,691.985 350.841,694.443 351.061,696.954C351.281,699.476 352.574,701.758 354.606,703.214C358.346,705.892 363.465,706.183 363.871,706.202L391.774,706.202C392.978,706.202 393.953,707.177 393.953,708.381C393.953,709.584 392.978,710.56 391.774,710.56Z" style="fill:url(#_Radial2);"/>
        </g>
        <g transform="matrix(2,0,0,2,0,0)">
            <path d="M401.966,743.147C400.162,743.147 398.525,742.449 397.232,741.129C395.552,739.413 394.71,737.046 394.921,734.633C395.133,732.214 396.378,730.022 398.338,728.618C401.332,726.473 405.058,726.304 405.473,726.292L405.537,726.291L446.833,726.291C448.037,726.291 449.012,727.267 449.012,728.47C449.012,729.674 448.037,730.649 446.833,730.649L405.582,730.649C405.332,730.662 402.734,730.83 400.875,732.161C399.951,732.823 399.363,733.862 399.262,735.013C399.162,736.157 399.557,737.275 400.346,738.081C400.82,738.564 401.334,738.789 401.966,738.789C403.332,738.789 404.201,738.293 404.786,737.181C405.261,736.275 405.337,735.319 405.337,735.31C405.398,734.108 406.422,733.187 407.624,733.245C408.825,733.306 409.75,734.329 409.689,735.531C409.68,735.722 409.568,737.448 408.643,739.208C407.309,741.748 404.937,743.147 401.966,743.147Z" style="fill:url(#_Radial3);"/>
        </g>
        <g transform="matrix(2,0,0,2,0,0)">
            <path d="M377.928,743.147C375.197,743.147 372.715,742.087 370.752,740.081C368.123,737.396 366.805,733.688 367.136,729.909C367.467,726.117 369.417,722.683 372.485,720.485C377.463,716.92 383.908,716.691 384.18,716.683L384.244,716.682L446.833,716.682C448.037,716.682 449.012,717.658 449.012,718.861C449.012,720.064 448.037,721.04 446.833,721.04L384.286,721.04C383.906,721.057 378.771,721.343 375.023,724.028C372.99,725.484 371.698,727.766 371.477,730.288C371.257,732.799 372.128,735.258 373.866,737.033C375.023,738.215 376.352,738.789 377.928,738.789C380.915,738.789 383.012,737.602 384.34,735.158C385.427,733.156 385.564,731.056 385.565,731.036C385.626,729.834 386.65,728.908 387.851,728.975C389.053,729.036 389.978,730.064 389.917,731.266C389.901,731.566 389.725,734.279 388.256,737.075C386.801,739.845 383.827,743.147 377.928,743.147Z" style="fill:url(#_Radial4);"/>
        </g>
    </g>
    <defs>
        <radialGradient id="_Radial1" cx="0" cy="0" r="1" gradientUnits="userSpaceOnUse" gradientTransform="matrix(21.3004,0,0,21.3004,421.951,697.327)"><stop offset="0" style="stop-color:rgb(214,240,252);stop-opacity:1"/><stop offset="0.9" style="stop-color:rgb(116,191,234);stop-opacity:1"/><stop offset="1" style="stop-color:rgb(116,191,234);stop-opacity:1"/></radialGradient>
        <radialGradient id="_Radial2" cx="0" cy="0" r="1" gradientUnits="userSpaceOnUse" gradientTransform="matrix(19.1577,0,0,19.1577,370.311,697.327)"><stop offset="0" style="stop-color:rgb(214,240,252);stop-opacity:1"/><stop offset="0.9" style="stop-color:rgb(116,191,234);stop-opacity:1"/><stop offset="1" style="stop-color:rgb(116,191,234);stop-opacity:1"/></radialGradient>
        <radialGradient id="_Radial3" cx="0" cy="0" r="1" gradientUnits="userSpaceOnUse" gradientTransform="matrix(20.0418,-0,0,-20.0418,421.951,734.719)"><stop offset="0" style="stop-color:rgb(214,240,252);stop-opacity:1"/><stop offset="0.9" style="stop-color:rgb(116,191,234);stop-opacity:1"/><stop offset="1" style="stop-color:rgb(116,191,234);stop-opacity:1"/></radialGradient>
        <radialGradient id="_Radial4" cx="0" cy="0" r="1" gradientUnits="userSpaceOnUse" gradientTransform="matrix(30.4392,-0,0,-30.4392,408.049,729.915)"><stop offset="0" style="stop-color:rgb(214,240,252);stop-opacity:1"/><stop offset="0.9" style="stop-color:rgb(116,191,234);stop-opacity:1"/><stop offset="1" style="stop-color:rgb(116,191,234);stop-opacity:1"/></radialGradient>
    </defs>
</svg>
