<?xml version="1.0" encoding="UTF-8" standalone="no"?>
<!DOCTYPE svg PUBLIC "-//W3C//DTD SVG 1.1//EN" "http://www.w3.org/Graphics/SVG/1.1/DTD/svg11.dtd">
<svg width="100%" height="100%" viewBox="0 0 178 204" version="1.1" xmlns="http://www.w3.org/2000/svg" xmlns:xlink="http://www.w3.org/1999/xlink" xml:space="preserve" xmlns:serif="http://www.serif.com/" style="fill-rule:evenodd;clip-rule:evenodd;stroke-linejoin:round;stroke-miterlimit:2;">
    <g transform="matrix(1,0,0,1,-406.104,-1325.65)">
        <g transform="matrix(2,0,0,2,0,0)">
            <path d="M214.675,732.659L213.365,737.553L207.341,736.896L209.781,731.349L214.675,732.659ZM214.508,695.05L209.626,696.403L207.137,690.877L213.156,690.168L214.508,695.05ZM243.957,755.081L247.538,751.497L251.121,755.077L247.541,759.967L243.957,755.081ZM251.084,672.161L247.503,675.745L243.919,672.165L247.499,667.275L251.084,672.161ZM280.264,694.759L281.573,689.865L287.598,690.522L285.158,696.069L280.264,694.759ZM287.801,736.541L281.783,737.25L280.43,732.368L285.313,731.015L287.801,736.541ZM291.741,737.239L287.744,728.365C287.408,727.618 286.589,727.233 285.796,727.451L278.615,729.441L273.124,726.333L280.974,724.158C281.852,723.914 282.368,723.002 282.125,722.124C281.881,721.245 280.97,720.729 280.091,720.972L269.055,724.03L266.967,722.847L268.987,719.279C269.436,718.486 269.156,717.476 268.363,717.026C267.979,716.809 267.532,716.754 267.108,716.872C266.682,716.99 266.328,717.266 266.111,717.651L264.091,721.219L262.048,720.063L262.042,707.197L264.023,706.052L266.075,709.603C266.37,710.113 266.918,710.429 267.507,710.429L267.508,710.429C267.797,710.429 268.082,710.352 268.333,710.207C268.715,709.986 268.989,709.63 269.103,709.203C269.217,708.777 269.158,708.331 268.937,707.949L266.885,704.399L269.139,703.096L279.924,705.982C280.065,706.019 280.208,706.038 280.352,706.038C281.098,706.038 281.754,705.534 281.947,704.813C282.061,704.386 282.003,703.941 281.782,703.558C281.561,703.176 281.204,702.903 280.778,702.789L273.187,700.758L278.474,697.702L285.672,699.628C285.812,699.666 285.956,699.685 286.101,699.685C286.756,699.685 287.349,699.297 287.613,698.698L291.532,689.788C291.743,689.307 291.712,688.75 291.45,688.296C291.188,687.842 290.72,687.537 290.198,687.48L280.521,686.426C279.706,686.337 278.958,686.85 278.747,687.642L276.821,694.84L271.357,697.997L273.462,690.129C273.576,689.702 273.518,689.257 273.297,688.875C273.076,688.492 272.719,688.219 272.293,688.105C271.867,687.991 271.421,688.049 271.038,688.27C270.657,688.491 270.384,688.847 270.269,689.274L267.31,700.336L265.232,701.537L263.18,697.986C262.959,697.604 262.603,697.331 262.177,697.216C261.75,697.103 261.305,697.161 260.923,697.382C260.54,697.603 260.267,697.96 260.153,698.386C260.039,698.813 260.096,699.258 260.318,699.64L262.37,703.19L260.441,704.305L249.166,697.802L249.165,695.456L253.265,695.454C254.177,695.454 254.917,694.712 254.917,693.801C254.917,692.89 254.176,692.149 253.265,692.149L253.264,692.149L249.163,692.151L249.162,689.548L257.052,681.651C257.364,681.338 257.536,680.923 257.536,680.482C257.535,680.04 257.363,679.625 257.051,679.313C256.739,679.001 256.324,678.83 255.883,678.83L255.882,678.83C255.44,678.83 255.025,679.002 254.714,679.314L249.16,684.874L249.157,678.766L254.424,673.495C255.004,672.914 255.073,672.011 254.587,671.349L248.83,663.501C248.52,663.079 248.022,662.826 247.498,662.826L247.497,662.826C246.973,662.826 246.475,663.079 246.164,663.503L240.415,671.355C239.929,672.019 239.999,672.921 240.58,673.501L245.852,678.768L245.854,685.078L240.093,679.321C239.781,679.009 239.365,678.837 238.924,678.837C238.482,678.837 238.067,679.01 237.755,679.322C237.443,679.634 237.271,680.049 237.271,680.491C237.271,680.932 237.444,681.347 237.756,681.659L245.856,689.752L245.858,692.152L241.757,692.154C241.316,692.154 240.901,692.326 240.589,692.639C240.277,692.951 240.105,693.366 240.105,693.808C240.105,694.719 240.847,695.46 241.758,695.46L241.759,695.46L245.859,695.458L245.86,697.804L234.414,704.419L232.477,703.323L234.496,699.754C234.714,699.37 234.769,698.924 234.651,698.499C234.533,698.073 234.257,697.719 233.873,697.502C233.489,697.284 233.042,697.229 232.617,697.347C232.192,697.465 231.838,697.742 231.62,698.126L229.6,701.694L227.512,700.512L224.454,689.477C224.211,688.599 223.299,688.083 222.42,688.325C221.542,688.569 221.025,689.481 221.269,690.36L223.443,698.209L217.953,695.101L215.963,687.919C215.746,687.138 214.977,686.621 214.177,686.719L204.511,687.859C203.99,687.92 203.524,688.23 203.266,688.686C203.007,689.143 202.982,689.701 203.198,690.179L207.195,699.053C207.461,699.645 208.052,700.027 208.702,700.027L208.703,700.027C208.852,700.027 209,700.007 209.143,699.967L216.324,697.977L221.638,700.985L214.066,703.084C213.188,703.327 212.671,704.24 212.914,705.118C213.112,705.831 213.767,706.329 214.506,706.329L214.507,706.329C214.656,706.329 214.804,706.309 214.948,706.269L225.707,703.288L227.972,704.571L225.952,708.139C225.734,708.523 225.679,708.969 225.797,709.395C225.915,709.82 226.192,710.174 226.576,710.391C226.824,710.532 227.105,710.606 227.39,710.606C227.984,710.606 228.536,710.285 228.828,709.767L230.848,706.199L232.992,707.413L232.998,720.162L230.915,721.366L228.864,717.815C228.643,717.433 228.286,717.159 227.86,717.045C227.434,716.931 226.988,716.99 226.606,717.211C226.224,717.432 225.95,717.788 225.836,718.215C225.722,718.642 225.781,719.087 226.002,719.469L228.053,723.019L225.975,724.22L214.914,721.26C214.487,721.146 214.042,721.205 213.66,721.426C213.278,721.646 213.004,722.003 212.89,722.429C212.776,722.856 212.834,723.302 213.055,723.684C213.276,724.066 213.633,724.339 214.059,724.453L221.928,726.559L216.464,729.716L209.267,727.79C208.473,727.576 207.657,727.968 207.326,728.721L203.407,737.63C203.196,738.11 203.227,738.668 203.489,739.122C203.751,739.576 204.219,739.881 204.741,739.938L214.419,740.993C215.228,741.077 215.983,740.555 216.192,739.777L218.118,732.578L223.406,729.522L221.375,737.114C221.26,737.54 221.319,737.986 221.54,738.368C221.761,738.75 222.117,739.023 222.544,739.137C222.684,739.175 222.828,739.194 222.973,739.194C223.719,739.194 224.375,738.689 224.568,737.968L227.453,727.184L229.707,725.881L231.759,729.432C232.053,729.942 232.602,730.258 233.191,730.258L233.192,730.258C233.48,730.258 233.766,730.181 234.017,730.036C234.399,729.815 234.672,729.458 234.786,729.032C234.9,728.605 234.842,728.16 234.621,727.778L232.569,724.228L234.701,722.996L245.875,729.44L245.876,731.785L241.775,731.788C241.334,731.788 240.919,731.96 240.607,732.272C240.295,732.584 240.123,733 240.123,733.441C240.124,734.352 240.865,735.093 241.776,735.093L241.777,735.093L245.877,735.091L245.878,737.491L237.785,745.592C237.473,745.904 237.301,746.319 237.302,746.761C237.302,747.202 237.474,747.617 237.786,747.929C238.098,748.241 238.513,748.413 238.954,748.413L238.955,748.413C239.396,748.413 239.811,748.24 240.124,747.928L245.88,742.166L245.883,748.476L240.617,753.747C240.036,754.328 239.967,755.23 240.453,755.893L246.21,763.741C246.521,764.163 247.019,764.416 247.542,764.416L247.543,764.416C248.068,764.415 248.566,764.163 248.876,763.739L254.626,755.886C255.111,755.224 255.042,754.321 254.46,753.741L249.189,748.474L249.186,742.367L254.745,747.921C255.056,748.233 255.472,748.405 255.914,748.405C256.355,748.405 256.769,748.233 257.082,747.92C257.394,747.608 257.566,747.193 257.566,746.751C257.565,746.31 257.393,745.895 257.081,745.583L249.184,737.693L249.183,735.09L253.283,735.088C253.725,735.088 254.14,734.916 254.452,734.603C254.764,734.291 254.936,733.876 254.935,733.434C254.935,732.523 254.194,731.782 253.283,731.782L253.282,731.782L249.181,731.784L249.18,729.438L260.422,722.941L262.462,724.096L260.441,727.664C260.225,728.048 260.17,728.494 260.288,728.92C260.406,729.345 260.682,729.699 261.066,729.916C261.314,730.057 261.596,730.131 261.88,730.131C262.475,730.131 263.026,729.809 263.319,729.292L265.339,725.724L267.604,727.006L270.585,737.765C270.783,738.478 271.437,738.976 272.177,738.976C272.326,738.976 272.475,738.956 272.619,738.916C273.497,738.672 274.014,737.76 273.771,736.882L271.672,729.309L276.986,732.317L278.976,739.499C279.174,740.212 279.829,740.71 280.568,740.71L280.762,740.698L290.428,739.56C290.949,739.498 291.415,739.189 291.673,738.732C291.931,738.276 291.957,737.718 291.741,737.239Z" style="fill:url(#_Radial1);"/>
        </g>
        <g transform="matrix(2,0,0,2,0,0)">
            <path d="M238.701,711.832C238.701,712.724 237.978,713.448 237.086,713.448C236.194,713.448 235.471,712.724 235.471,711.832C235.471,710.94 236.194,710.217 237.086,710.217C237.978,710.217 238.701,710.94 238.701,711.832Z" style="fill:url(#_Radial2);"/>
        </g>
        <g transform="matrix(2,0,0,2,0,0)">
            <path d="M259.467,711.832C259.467,712.724 258.745,713.448 257.853,713.448C256.961,713.448 256.238,712.724 256.238,711.832C256.238,710.94 256.961,710.217 257.853,710.217C258.745,710.217 259.467,710.94 259.467,711.832Z" style="fill:url(#_Radial3);"/>
        </g>
        <g transform="matrix(2,0,0,2,0,0)">
            <path d="M247.469,721.495C249.044,721.495 250.321,720.218 250.321,718.643L244.618,718.643C244.618,720.218 245.895,721.495 247.469,721.495Z" style="fill:url(#_Radial4);"/>
        </g>
    </g>
    <defs>
        <radialGradient id="_Radial1" cx="0" cy="0" r="1" gradientUnits="userSpaceOnUse" gradientTransform="matrix(47.7126,0,0,47.7126,247.469,713.621)"><stop offset="0" style="stop-color:rgb(214,240,252);stop-opacity:1"/><stop offset="0.9" style="stop-color:rgb(116,191,234);stop-opacity:1"/><stop offset="1" style="stop-color:rgb(116,191,234);stop-opacity:1"/></radialGradient>
        <radialGradient id="_Radial2" cx="0" cy="0" r="1" gradientUnits="userSpaceOnUse" gradientTransform="matrix(1.61516,0,0,1.61516,237.681,711.237)"><stop offset="0" style="stop-color:rgb(65,64,66);stop-opacity:1"/><stop offset="1" style="stop-color:rgb(35,31,32);stop-opacity:1"/></radialGradient>
        <radialGradient id="_Radial3" cx="0" cy="0" r="1" gradientUnits="userSpaceOnUse" gradientTransform="matrix(1.61516,0,0,1.61516,258.32,711.109)"><stop offset="0" style="stop-color:rgb(65,64,66);stop-opacity:1"/><stop offset="1" style="stop-color:rgb(35,31,32);stop-opacity:1"/></radialGradient>
        <radialGradient id="_Radial4" cx="0" cy="0" r="1" gradientUnits="userSpaceOnUse" gradientTransform="matrix(4.73294,0,0,4.73294,247.384,720.157)"><stop offset="0" style="stop-color:rgb(65,64,66);stop-opacity:1"/><stop offset="1" style="stop-color:rgb(35,31,32);stop-opacity:1"/></radialGradient>
    </defs>
</svg>
