<?xml version="1.0" encoding="UTF-8" standalone="no"?>
<!DOCTYPE svg PUBLIC "-//W3C//DTD SVG 1.1//EN" "http://www.w3.org/Graphics/SVG/1.1/DTD/svg11.dtd">
<svg width="100%" height="100%" viewBox="0 0 30 30" version="1.1" xmlns="http://www.w3.org/2000/svg" xmlns:xlink="http://www.w3.org/1999/xlink" xml:space="preserve" xmlns:serif="http://www.serif.com/" style="fill-rule:evenodd;clip-rule:evenodd;stroke-linejoin:round;stroke-miterlimit:2;">
    <g transform="matrix(1.18493,0,0,1.17403,-2.76217,-2.17612)">
        <g transform="matrix(0.477586,0,0,0.477586,8.07,7.71)">
            <path d="M29,14.5C29,6.497 22.563,0 14.633,0L14.367,0C6.437,0 0,6.497 0,14.5C0,22.503 6.437,29 14.367,29L14.633,29C22.563,29 29,22.503 29,14.5Z" style="fill:url(#_Radial1);"/>
        </g>
        <path d="M4.37,14.62C4.37,14.38 4.45,14.17 4.62,14C4.79,13.84 5,13.76 5.22,13.76L7.26,13.76C7.49,13.76 7.68,13.84 7.84,14.01C7.99,14.18 8.07,14.38 8.07,14.62C8.07,14.86 8,15.06 7.85,15.23C7.7,15.4 7.5,15.48 7.27,15.48L5.23,15.48C5,15.48 4.8,15.4 4.63,15.23C4.46,15.06 4.37,14.86 4.37,14.62ZM7.23,21.55C7.23,21.32 7.31,21.12 7.46,20.94L8.93,19.51C9.08,19.35 9.28,19.28 9.52,19.28C9.76,19.28 9.96,19.36 10.12,19.51C10.28,19.66 10.36,19.85 10.36,20.08C10.36,20.32 10.28,20.54 10.12,20.72L8.7,22.14C8.29,22.46 7.88,22.46 7.47,22.14C7.31,21.98 7.23,21.78 7.23,21.55ZM7.23,7.71C7.23,7.48 7.31,7.28 7.46,7.1C7.66,6.93 7.87,6.85 8.1,6.85C8.32,6.85 8.52,6.93 8.69,7.09L10.12,8.56C10.28,8.71 10.36,8.91 10.36,9.15C10.36,9.39 10.28,9.59 10.12,9.75C9.96,9.91 9.76,9.99 9.52,9.99C9.28,9.99 9.08,9.91 8.93,9.75L7.47,8.32C7.31,8.16 7.23,7.95 7.23,7.71ZM9.78,14.62C9.78,13.69 10.01,12.82 10.48,12.02C10.95,11.22 11.58,10.58 12.39,10.11C13.2,9.64 14.06,9.41 14.99,9.41C15.69,9.41 16.36,9.55 17.01,9.83C17.65,10.11 18.21,10.48 18.67,10.95C19.14,11.42 19.51,11.97 19.78,12.61C20.05,13.25 20.19,13.93 20.19,14.63C20.19,15.57 19.96,16.44 19.49,17.24C19.02,18.04 18.39,18.67 17.59,19.14C16.79,19.61 15.92,19.84 14.98,19.84C14.04,19.84 13.17,19.61 12.37,19.14C11.57,18.67 10.94,18.04 10.47,17.24C10.02,16.43 9.78,15.56 9.78,14.62ZM11.48,14.62C11.48,15.6 11.82,16.43 12.51,17.12C13.19,17.81 14.02,18.16 15,18.16C15.98,18.16 16.81,17.81 17.5,17.12C18.19,16.43 18.54,15.6 18.54,14.62C18.54,13.66 18.19,12.84 17.5,12.15C16.81,11.47 15.98,11.13 15,11.13C14.03,11.13 13.2,11.47 12.52,12.15C11.82,12.84 11.48,13.66 11.48,14.62ZM14.14,22.4C14.14,22.16 14.22,21.96 14.39,21.8C14.56,21.64 14.76,21.56 14.99,21.56C15.23,21.56 15.44,21.64 15.6,21.8C15.76,21.96 15.84,22.16 15.84,22.4L15.84,24.39C15.84,24.63 15.76,24.84 15.59,25.01C15.42,25.18 15.22,25.26 14.99,25.26C14.76,25.26 14.55,25.18 14.39,25.01C14.22,24.84 14.14,24.63 14.14,24.39L14.14,22.4ZM14.14,6.9L14.14,4.86C14.14,4.63 14.22,4.43 14.39,4.26C14.56,4.09 14.76,4 15,4C15.24,4 15.43,4.08 15.6,4.25C15.77,4.42 15.85,4.62 15.85,4.85L15.85,6.9C15.85,7.13 15.77,7.32 15.6,7.48C15.43,7.64 15.23,7.71 15,7.71C14.77,7.71 14.56,7.63 14.4,7.48C14.24,7.33 14.14,7.13 14.14,6.9ZM19.66,20.08C19.66,19.85 19.74,19.66 19.89,19.52C20.04,19.36 20.23,19.29 20.45,19.29C20.69,19.29 20.89,19.37 21.05,19.52L22.51,20.95C22.67,21.12 22.75,21.33 22.75,21.56C22.75,21.79 22.67,21.99 22.51,22.15C22.11,22.46 21.71,22.46 21.31,22.15L19.89,20.73C19.74,20.55 19.66,20.34 19.66,20.08ZM19.66,9.16C19.66,8.91 19.74,8.71 19.89,8.57L21.31,7.1C21.48,6.94 21.68,6.86 21.9,6.86C22.14,6.86 22.34,6.94 22.5,7.11C22.67,7.28 22.75,7.48 22.75,7.71C22.75,7.96 22.67,8.17 22.51,8.33L21.05,9.76C20.87,9.92 20.67,10 20.45,10C20.22,10 20.04,9.92 19.89,9.76C19.74,9.6 19.66,9.4 19.66,9.16ZM21.92,14.62C21.92,14.38 22,14.18 22.16,14C22.32,13.84 22.51,13.76 22.73,13.76L24.75,13.76C24.98,13.76 25.18,13.85 25.35,14.02C25.52,14.19 25.61,14.39 25.61,14.62C25.61,14.85 25.52,15.05 25.35,15.22C25.18,15.39 24.98,15.47 24.75,15.47L22.73,15.47C22.5,15.47 22.3,15.39 22.15,15.22C22,15.05 21.92,14.86 21.92,14.62Z" style="fill:rgb(255,183,0);fill-rule:nonzero;"/>
    </g>
    <defs>
        <radialGradient id="_Radial1" cx="0" cy="0" r="1" gradientUnits="userSpaceOnUse" gradientTransform="matrix(14.4686,0,0,14.6029,14.5314,14.5209)"><stop offset="0" style="stop-color:white;stop-opacity:1"/><stop offset="0.62" style="stop-color:white;stop-opacity:0.86"/><stop offset="0.82" style="stop-color:white;stop-opacity:0.51"/><stop offset="1" style="stop-color:white;stop-opacity:0.14"/></radialGradient>
    </defs>
</svg>
