<?xml version="1.0" encoding="UTF-8" standalone="no"?>
<!DOCTYPE svg PUBLIC "-//W3C//DTD SVG 1.1//EN" "http://www.w3.org/Graphics/SVG/1.1/DTD/svg11.dtd">
<svg width="100%" height="100%" viewBox="0 0 30 30" version="1.1" xmlns="http://www.w3.org/2000/svg" xmlns:xlink="http://www.w3.org/1999/xlink" xml:space="preserve" xmlns:serif="http://www.serif.com/" style="fill-rule:evenodd;clip-rule:evenodd;stroke-linejoin:round;stroke-miterlimit:2;">
    <path d="M3.58,13.45C3.58,12.3 3.94,11.27 4.66,10.38C5.38,9.48 6.29,8.9 7.4,8.64C7.71,7.27 8.42,6.15 9.51,5.27C10.6,4.39 11.86,3.95 13.27,3.95C14.65,3.95 15.88,4.38 16.96,5.23C18.04,6.08 18.74,7.18 19.06,8.52L19.39,8.52C20.29,8.52 21.12,8.74 21.88,9.17C22.64,9.6 23.25,10.2 23.69,10.96C24.13,11.72 24.36,12.54 24.36,13.44C24.36,13.64 24.35,13.84 24.33,14.05C24.98,14.56 25.49,15.2 25.87,15.96C26.25,16.72 26.43,17.53 26.43,18.39C26.43,19.16 26.28,19.89 25.98,20.58C25.68,21.27 25.28,21.86 24.78,22.36C24.28,22.85 23.68,23.25 22.99,23.54C22.3,23.83 21.58,23.98 20.82,23.98C20.07,23.98 19.35,23.83 18.66,23.54C17.97,23.25 17.38,22.85 16.88,22.35C16.38,21.85 15.99,21.26 15.69,20.57C15.39,19.88 15.24,19.16 15.24,18.41L8.38,18.41C7.04,18.35 5.91,17.84 4.98,16.88C4.05,15.94 3.58,14.79 3.58,13.45ZM5.29,13.45C5.29,14.32 5.59,15.07 6.19,15.71C6.79,16.35 7.52,16.69 8.38,16.74L19.57,16.74C20.43,16.7 21.16,16.35 21.76,15.71C22.37,15.07 22.67,14.31 22.67,13.45C22.67,12.57 22.34,11.82 21.69,11.18C21.04,10.54 20.27,10.22 19.37,10.22L17.75,10.22C17.64,10.22 17.58,10.16 17.58,10.05L17.51,9.47C17.4,8.39 16.93,7.48 16.11,6.75C15.29,6.02 14.34,5.65 13.25,5.65C12.16,5.65 11.2,6.02 10.4,6.75C9.6,7.48 9.14,8.39 9.04,9.47L8.96,10.05C8.96,10.16 8.89,10.22 8.76,10.22L8.24,10.22C7.4,10.32 6.7,10.68 6.14,11.29C5.57,11.9 5.29,12.62 5.29,13.45ZM16.55,18.56C16.61,19.68 17.07,20.63 17.92,21.39C18.77,22.15 19.74,22.53 20.83,22.53C21.43,22.53 22,22.41 22.53,22.18C23.06,21.95 23.51,21.63 23.87,21.25C24.23,20.86 24.52,20.42 24.72,19.92C24.93,19.42 25.03,18.92 25.03,18.4C25.03,17.91 24.93,17.42 24.73,16.93C24.53,16.44 24.25,15.99 23.88,15.58C23.49,16.4 22.91,17.08 22.14,17.6C21.37,18.12 20.51,18.39 19.57,18.43L16.54,18.43C16.54,18.44 16.54,18.47 16.55,18.56Z" style="fill-rule:nonzero;"/>
</svg>
